<?xml version="1.0" encoding="UTF-8"?>
<svg xmlns="http://www.w3.org/2000/svg" xmlns:xlink="http://www.w3.org/1999/xlink" width="810pt" height="809.999993pt" viewBox="0 0 810 809.999993" version="1.2">
<g id="surface1">
<path style=" stroke:none;fill-rule:nonzero;fill:rgb(7.449341%,12.159729%,25.489807%);fill-opacity:1;" d="M 660.652344 801.085938 L 150.953125 801.085938 C 67.769531 801.085938 -0.015625 733.300781 -0.015625 650.109375 L -0.015625 150.972656 C -0.015625 67.785156 67.769531 0 150.953125 0 L 660.652344 0 C 743.839844 0 811.621094 67.785156 811.621094 150.972656 L 811.621094 650.109375 C 811.621094 733.300781 743.839844 801.085938 660.652344 801.085938 Z M 660.652344 801.085938 "/>
<path style=" stroke:none;fill-rule:nonzero;fill:rgb(1.568604%,91.369629%,61.569214%);fill-opacity:1;" d="M 603.15625 677.011719 L 195.292969 677.011719 C 138.023438 677.011719 91.363281 630.183594 91.363281 572.710938 L 91.363281 227.882812 C 91.363281 170.410156 138.023438 123.582031 195.292969 123.582031 L 603.15625 123.582031 C 660.425781 123.582031 707.085938 170.410156 707.085938 227.882812 L 707.085938 572.710938 C 707.085938 630.183594 660.425781 677.011719 603.15625 677.011719 Z M 603.15625 677.011719 "/>
<path style=" stroke:none;fill-rule:nonzero;fill:rgb(7.449341%,12.159729%,25.489807%);fill-opacity:1;" d="M 485.332031 86.703125 L 624.890625 86.703125 L 624.890625 712.359375 L 485.332031 712.359375 Z M 485.332031 86.703125 "/>
<path style=" stroke:none;fill-rule:nonzero;fill:rgb(7.449341%,12.159729%,25.489807%);fill-opacity:1;" d="M 545.878906 609.351562 L 239.71875 609.351562 C 196.730469 609.351562 161.707031 574.199219 161.707031 531.058594 L 161.707031 272.21875 C 161.707031 229.078125 196.730469 193.925781 239.71875 193.925781 L 545.878906 193.925781 C 588.867188 193.925781 623.894531 229.078125 623.894531 272.21875 L 623.894531 531.058594 C 623.894531 574.199219 588.867188 609.351562 545.878906 609.351562 Z M 545.878906 609.351562 "/>
</g>
</svg>
